<svg xmlns="http://www.w3.org/2000/svg" xmlns:xlink="http://www.w3.org/1999/xlink" width="500" zoomAndPan="magnify" viewBox="0 0 375 374.999991" height="500" preserveAspectRatio="xMidYMid meet" version="1.0"><defs><clipPath id="5b04c1d963"><path d="M 24 8.222656 L 351 8.222656 L 351 366.722656 L 24 366.722656 Z M 24 8.222656 " clip-rule="nonzero"/></clipPath></defs><path fill="#264653" d="M 65.386719 116.960938 C 59.46875 127.199219 62.632812 140.632812 70.300781 155.289062 C 72.03125 158.597656 74.007812 161.941406 76.21875 165.3125 C 84.617188 156.597656 94.167969 147.976562 104.726562 139.667969 C 106.652344 126.371094 109.347656 113.792969 112.695312 102.167969 L 112.699219 102.164062 C 108.667969 101.9375 104.78125 101.898438 101.050781 102.054688 C 84.519531 102.75 71.300781 106.726562 65.386719 116.960938 " fill-opacity="1" fill-rule="nonzero"/><path fill="#264653" d="M 273.722656 195.273438 C 276.386719 192.683594 278.933594 190.082031 281.355469 187.476562 C 278.9375 184.867188 276.386719 182.269531 273.726562 179.683594 C 273.78125 182.265625 273.8125 184.863281 273.8125 187.476562 C 273.8125 190.085938 273.78125 192.683594 273.722656 195.273438 " fill-opacity="1" fill-rule="nonzero"/><path fill="#264653" d="M 273.726562 179.675781 L 273.71875 179.675781 C 273.722656 179.675781 273.722656 179.679688 273.726562 179.683594 C 273.726562 179.679688 273.726562 179.679688 273.726562 179.675781 " fill-opacity="1" fill-rule="nonzero"/><path fill="#264653" d="M 137.757812 258.136719 L 137.753906 258.128906 C 138.667969 261.730469 139.648438 265.234375 140.695312 268.636719 C 144.171875 267.839844 147.703125 266.9375 151.265625 265.925781 C 149 264.6875 146.730469 263.414062 144.46875 262.105469 C 142.203125 260.800781 139.964844 259.472656 137.757812 258.136719 " fill-opacity="1" fill-rule="nonzero"/><path fill="#264653" d="M 298.949219 165.3125 C 301.15625 161.941406 303.136719 158.597656 304.867188 155.289062 C 312.535156 140.632812 315.691406 127.199219 309.78125 116.964844 L 309.78125 116.960938 C 303.867188 106.726562 290.648438 102.75 274.117188 102.054688 C 270.382812 101.898438 266.492188 101.9375 262.46875 102.167969 C 265.816406 113.792969 268.515625 126.371094 270.433594 139.664062 C 280.996094 147.972656 290.546875 156.597656 298.949219 165.3125 " fill-opacity="1" fill-rule="nonzero"/><path fill="#264653" d="M 224.066406 80.003906 C 222.25 76.402344 220.335938 73.019531 218.335938 69.867188 C 209.46875 55.90625 199.40625 46.457031 187.585938 46.457031 C 175.757812 46.457031 165.699219 55.90625 156.828125 69.867188 C 154.832031 73.019531 152.917969 76.402344 151.105469 80.003906 C 162.855469 82.917969 175.101562 86.875 187.578125 91.855469 C 200.0625 86.875 212.308594 82.921875 224.066406 80.003906 " fill-opacity="1" fill-rule="nonzero"/><path fill="#264653" d="M 151.273438 109.015625 C 147.695312 108.007812 144.171875 107.105469 140.695312 106.3125 C 139.648438 109.714844 138.667969 113.222656 137.757812 116.8125 C 139.964844 115.472656 142.203125 114.148438 144.46875 112.84375 C 146.730469 111.535156 149 110.261719 151.273438 109.015625 " fill-opacity="1" fill-rule="nonzero"/><path fill="#264653" d="M 151.101562 294.941406 C 152.917969 298.542969 154.832031 301.925781 156.828125 305.078125 C 165.699219 319.042969 175.757812 328.492188 187.585938 328.492188 C 199.40625 328.492188 209.46875 319.042969 218.335938 305.078125 C 220.335938 301.925781 222.25 298.542969 224.066406 294.941406 C 212.3125 292.027344 200.0625 288.074219 187.585938 283.089844 C 175.101562 288.074219 162.851562 292.027344 151.101562 294.941406 " fill-opacity="1" fill-rule="nonzero"/><path fill="#264653" d="M 101.441406 195.269531 C 101.382812 192.683594 101.351562 190.085938 101.351562 187.476562 C 101.351562 184.863281 101.382812 182.261719 101.441406 179.675781 C 98.78125 182.261719 96.238281 184.863281 93.804688 187.476562 C 96.238281 190.082031 98.78125 192.683594 101.441406 195.269531 " fill-opacity="1" fill-rule="nonzero"/><path fill="#264653" d="M 237.414062 116.820312 C 236.5 113.222656 235.519531 109.714844 234.46875 106.3125 C 230.996094 107.105469 227.464844 108.007812 223.898438 109.015625 C 226.164062 110.261719 228.433594 111.535156 230.695312 112.84375 C 232.960938 114.148438 235.203125 115.472656 237.414062 116.820312 " fill-opacity="1" fill-rule="nonzero"/><path fill="#264653" d="M 76.21875 209.632812 C 74.007812 213.007812 72.03125 216.351562 70.300781 219.660156 C 62.632812 234.316406 59.46875 247.746094 65.386719 257.984375 C 71.300781 268.21875 84.519531 272.199219 101.050781 272.890625 C 104.78125 273.050781 108.667969 273.011719 112.695312 272.78125 C 109.347656 261.15625 106.652344 248.574219 104.730469 235.289062 C 94.167969 226.972656 84.617188 218.347656 76.21875 209.632812 " fill-opacity="1" fill-rule="nonzero"/><path fill="#264653" d="M 298.949219 209.632812 C 290.546875 218.347656 280.996094 226.972656 270.441406 235.277344 C 268.515625 248.574219 265.816406 261.15625 262.46875 272.78125 C 266.492188 273.011719 270.382812 273.050781 274.117188 272.890625 C 290.648438 272.199219 303.867188 268.21875 309.78125 257.984375 C 315.691406 247.746094 312.535156 234.3125 304.867188 219.660156 C 303.136719 216.351562 301.15625 213.007812 298.949219 209.632812 " fill-opacity="1" fill-rule="nonzero"/><path fill="#264653" d="M 227.550781 151.738281 C 226.132812 168.816406 220.738281 204.492188 201.558594 223.664062 C 192.558594 232.652344 183.046875 235.710938 174.371094 235.800781 C 161.753906 235.984375 150.175781 228.816406 144.71875 217.445312 C 144.363281 216.703125 144.121094 215.929688 143.824219 215.171875 C 143.765625 215.050781 143.71875 214.929688 143.675781 214.800781 C 139.628906 204.023438 141.53125 191.820312 148.964844 182.84375 C 148.96875 182.835938 148.972656 182.832031 148.976562 182.832031 C 150.121094 181.457031 151.390625 180.070312 152.789062 178.667969 C 157.261719 174.199219 162.605469 172.34375 168.660156 171.152344 C 174.039062 170.097656 180.023438 169.566406 186.398438 167.671875 C 200.03125 163.625 210.878906 153.835938 217.019531 147.203125 C 218.757812 145.28125 221.527344 144.675781 223.898438 145.695312 C 226.285156 146.71875 227.753906 149.136719 227.550781 151.71875 C 227.550781 151.726562 227.550781 151.726562 227.550781 151.738281 Z M 216.648438 137.164062 C 206.949219 131.566406 197.207031 126.605469 187.585938 122.304688 L 187.578125 122.304688 C 177.957031 126.605469 168.21875 131.566406 158.519531 137.164062 C 148.820312 142.761719 139.648438 148.710938 131.113281 154.894531 C 130.027344 165.371094 129.457031 176.277344 129.457031 187.476562 C 129.457031 198.667969 130.027344 209.574219 131.113281 220.0625 C 139.648438 226.238281 148.820312 232.1875 158.519531 237.78125 C 168.21875 243.382812 177.957031 248.339844 187.585938 252.644531 C 197.207031 248.339844 206.949219 243.382812 216.648438 237.78125 C 226.351562 232.1875 235.515625 226.238281 244.054688 220.054688 C 245.140625 209.574219 245.714844 198.667969 245.714844 187.476562 C 245.714844 176.277344 245.140625 165.371094 244.050781 154.890625 C 235.515625 148.710938 226.347656 142.761719 216.648438 137.164062 " fill-opacity="1" fill-rule="nonzero"/><path fill="#264653" d="M 314.917969 260.949219 C 308.144531 272.6875 293.320312 278.027344 274.363281 278.820312 C 269.285156 279.03125 263.921875 278.90625 258.324219 278.4375 C 257.429688 278.363281 256.621094 277.890625 256.117188 277.148438 C 255.613281 276.40625 255.472656 275.476562 255.730469 274.617188 C 259.59375 261.953125 262.644531 248.054688 264.730469 233.273438 C 264.835938 232.511719 265.238281 231.820312 265.839844 231.347656 C 277.613281 222.152344 288.121094 212.5625 297.171875 202.882812 C 297.78125 202.230469 298.664062 201.886719 299.554688 201.953125 C 300.449219 202.015625 301.265625 202.480469 301.777344 203.21875 C 304.980469 207.832031 307.769531 212.40625 310.128906 216.90625 C 318.921875 233.710938 321.703125 249.210938 314.917969 260.949219 Z M 249.820312 221.996094 C 249.730469 222.832031 249.292969 223.585938 248.621094 224.074219 C 239.613281 230.652344 229.910156 236.984375 219.617188 242.925781 C 209.316406 248.863281 198.984375 254.097656 188.785156 258.601562 C 188.015625 258.9375 187.148438 258.9375 186.386719 258.601562 C 176.179688 254.097656 165.847656 248.863281 155.546875 242.925781 C 145.253906 236.984375 135.554688 230.652344 126.546875 224.074219 C 125.875 223.585938 125.4375 222.832031 125.347656 221.996094 C 124.148438 210.917969 123.515625 199.351562 123.515625 187.476562 C 123.515625 175.59375 124.148438 164.03125 125.347656 152.949219 C 125.4375 152.117188 125.875 151.367188 126.546875 150.871094 C 135.554688 144.292969 145.253906 137.964844 155.546875 132.023438 C 165.847656 126.085938 176.179688 120.851562 186.386719 116.34375 C 187.148438 116.007812 188.015625 116.007812 188.785156 116.34375 C 198.984375 120.851562 209.316406 126.085938 219.617188 132.023438 C 229.910156 137.964844 239.613281 144.292969 248.621094 150.871094 C 249.292969 151.367188 249.730469 152.117188 249.820312 152.949219 C 251.019531 164.03125 251.648438 175.59375 251.648438 187.476562 C 251.648438 199.351562 251.019531 210.917969 249.820312 221.996094 Z M 239.3125 273.03125 C 238.839844 274.484375 237.347656 275.34375 235.859375 275.027344 C 229.175781 273.585938 222.289062 271.757812 215.25 269.539062 C 214.101562 269.175781 213.285156 268.164062 213.1875 266.96875 C 213.078125 265.773438 213.703125 264.632812 214.765625 264.074219 C 219.085938 261.828125 223.410156 259.457031 227.726562 256.96875 C 232.046875 254.476562 236.265625 251.914062 240.371094 249.304688 C 241.378906 248.660156 242.6875 248.691406 243.667969 249.378906 C 244.652344 250.066406 245.125 251.28125 244.863281 252.449219 C 243.265625 259.652344 241.40625 266.53125 239.3125 273.03125 Z M 231.035156 294.1875 C 228.640625 299.257812 226.070312 303.964844 223.347656 308.257812 C 213.179688 324.269531 201.140625 334.425781 187.585938 334.425781 C 174.023438 334.425781 161.984375 324.269531 151.816406 308.257812 C 149.09375 303.964844 146.523438 299.257812 144.132812 294.1875 C 143.75 293.375 143.753906 292.433594 144.140625 291.625 C 144.535156 290.820312 145.269531 290.234375 146.144531 290.027344 C 159.050781 287.035156 172.621094 282.734375 186.46875 277.140625 C 187.183594 276.855469 187.984375 276.855469 188.695312 277.140625 C 202.542969 282.734375 216.113281 287.035156 229.019531 290.027344 C 229.894531 290.234375 230.628906 290.820312 231.019531 291.625 C 231.414062 292.433594 231.421875 293.375 231.035156 294.1875 Z M 135.855469 273.03125 C 133.757812 266.53125 131.902344 259.652344 130.304688 252.449219 C 130.046875 251.28125 130.515625 250.066406 131.5 249.378906 C 132.484375 248.691406 133.78125 248.660156 134.796875 249.304688 C 138.90625 251.914062 143.121094 254.476562 147.4375 256.96875 C 151.757812 259.457031 156.078125 261.828125 160.394531 264.074219 C 161.460938 264.632812 162.089844 265.773438 161.984375 266.96875 C 161.878906 268.164062 161.0625 269.175781 159.917969 269.539062 C 152.878906 271.757812 145.988281 273.585938 139.304688 275.027344 C 137.8125 275.34375 136.324219 274.484375 135.855469 273.03125 Z M 119.433594 100.332031 C 115.574219 113 112.515625 126.890625 110.441406 141.675781 C 110.332031 142.4375 109.933594 143.128906 109.324219 143.601562 C 97.550781 152.792969 87.039062 162.386719 77.992188 172.0625 C 77.382812 172.714844 76.507812 173.058594 75.609375 172.996094 C 74.714844 172.925781 73.898438 172.464844 73.386719 171.726562 C 70.183594 167.117188 67.398438 162.539062 65.042969 158.039062 C 56.246094 141.234375 53.464844 125.734375 60.242188 114 C 67.023438 102.261719 81.84375 96.917969 100.804688 96.128906 C 105.882812 95.914062 111.246094 96.046875 116.839844 96.511719 C 117.734375 96.582031 118.546875 97.058594 119.050781 97.796875 C 119.554688 98.539062 119.695312 99.472656 119.433594 100.332031 Z M 107.609375 202.246094 C 107.660156 203.445312 106.988281 204.558594 105.898438 205.066406 C 104.8125 205.570312 103.523438 205.375 102.636719 204.566406 C 97.203125 199.578125 92.164062 194.53125 87.578125 189.464844 C 86.550781 188.335938 86.550781 186.613281 87.578125 185.484375 C 92.164062 180.417969 97.195312 175.371094 102.636719 170.382812 C 103.523438 169.574219 104.8125 169.378906 105.898438 169.886719 C 106.988281 170.394531 107.660156 171.5 107.609375 172.699219 C 107.398438 177.5625 107.292969 182.488281 107.292969 187.476562 C 107.292969 192.457031 107.398438 197.382812 107.609375 202.246094 Z M 119.050781 277.148438 C 118.546875 277.890625 117.734375 278.363281 116.839844 278.4375 C 111.246094 278.90625 105.882812 279.03125 100.804688 278.820312 C 81.84375 278.027344 67.023438 272.6875 60.242188 260.949219 C 53.464844 249.210938 56.246094 233.710938 65.042969 216.90625 C 67.398438 212.40625 70.183594 207.832031 73.386719 203.21875 C 73.898438 202.480469 74.714844 202.015625 75.609375 201.953125 C 76.507812 201.886719 77.382812 202.230469 77.992188 202.882812 C 87.039062 212.5625 97.550781 222.152344 109.324219 231.347656 C 109.933594 231.820312 110.332031 232.511719 110.441406 233.273438 C 112.515625 248.054688 115.574219 261.949219 119.433594 274.617188 C 119.695312 275.476562 119.554688 276.40625 119.050781 277.148438 Z M 135.855469 101.914062 C 136.324219 100.460938 137.8125 99.601562 139.304688 99.925781 C 145.988281 101.359375 152.878906 103.195312 159.917969 105.410156 C 161.0625 105.769531 161.878906 106.785156 161.984375 107.984375 C 162.089844 109.175781 161.460938 110.3125 160.394531 110.871094 C 156.078125 113.117188 151.757812 115.488281 147.4375 117.980469 C 143.121094 120.472656 138.90625 123.03125 134.796875 125.640625 C 133.78125 126.285156 132.484375 126.253906 131.5 125.566406 C 130.515625 124.882812 130.046875 123.671875 130.304688 122.496094 C 131.902344 115.296875 133.757812 108.417969 135.855469 101.914062 Z M 144.132812 80.765625 C 146.523438 75.683594 149.09375 70.980469 151.816406 66.695312 C 161.984375 50.675781 174.023438 40.523438 187.585938 40.523438 C 201.140625 40.523438 213.179688 50.675781 223.347656 66.695312 C 226.070312 70.980469 228.640625 75.683594 231.035156 80.765625 C 231.421875 81.570312 231.414062 82.511719 231.019531 83.320312 C 230.628906 84.128906 229.894531 84.714844 229.019531 84.917969 C 216.113281 87.914062 202.550781 92.210938 188.695312 97.804688 C 187.984375 98.089844 187.183594 98.089844 186.46875 97.804688 C 172.621094 92.210938 159.050781 87.914062 146.144531 84.917969 C 145.269531 84.714844 144.535156 84.128906 144.140625 83.320312 C 143.753906 82.511719 143.75 81.570312 144.132812 80.765625 Z M 239.3125 101.914062 C 241.40625 108.417969 243.265625 115.296875 244.863281 122.496094 C 245.125 123.671875 244.652344 124.882812 243.667969 125.566406 C 242.6875 126.253906 241.378906 126.285156 240.371094 125.640625 C 236.265625 123.03125 232.046875 120.472656 227.726562 117.980469 C 223.410156 115.488281 219.085938 113.117188 214.765625 110.871094 C 213.703125 110.3125 213.078125 109.175781 213.1875 107.984375 C 213.285156 106.785156 214.101562 105.769531 215.25 105.410156 C 222.289062 103.195312 229.175781 101.359375 235.859375 99.921875 C 237.347656 99.601562 238.839844 100.460938 239.3125 101.914062 Z M 267.554688 172.699219 C 267.503906 171.5 268.179688 170.394531 269.269531 169.886719 C 270.359375 169.378906 271.640625 169.574219 272.527344 170.382812 C 277.96875 175.371094 283 180.417969 287.585938 185.484375 C 288.609375 186.613281 288.609375 188.335938 287.585938 189.464844 C 283 194.53125 277.96875 199.578125 272.527344 204.566406 C 271.640625 205.375 270.359375 205.570312 269.269531 205.066406 C 268.179688 204.558594 267.503906 203.445312 267.554688 202.246094 C 267.769531 197.382812 267.875 192.457031 267.875 187.476562 C 267.875 182.488281 267.769531 177.5625 267.554688 172.699219 Z M 256.117188 97.796875 C 256.621094 97.058594 257.429688 96.582031 258.324219 96.511719 C 263.921875 96.046875 269.285156 95.914062 274.363281 96.128906 C 293.320312 96.917969 308.144531 102.261719 314.917969 114 C 321.703125 125.734375 318.921875 141.234375 310.128906 158.039062 C 307.769531 162.539062 304.980469 167.117188 301.777344 171.726562 C 301.265625 172.464844 300.449219 172.925781 299.554688 172.996094 C 298.664062 173.058594 297.78125 172.714844 297.171875 172.0625 C 288.121094 162.386719 277.613281 152.796875 265.839844 143.601562 C 265.238281 143.128906 264.835938 142.4375 264.730469 141.675781 C 262.644531 126.890625 259.59375 113 255.730469 100.332031 C 255.472656 99.472656 255.613281 98.539062 256.117188 97.796875 Z M 311.648438 189.253906 C 310.855469 188.195312 310.855469 186.746094 311.648438 185.695312 C 316.75 178.886719 321.058594 172.136719 324.507812 165.554688 C 336.382812 142.855469 338.132812 121.738281 328.976562 105.886719 C 319.816406 90.039062 300.644531 80.992188 275.039062 79.925781 C 267.609375 79.609375 259.605469 79.972656 251.160156 80.984375 C 249.851562 81.136719 248.589844 80.414062 248.074219 79.203125 C 244.730469 71.386719 241.035156 64.28125 237.050781 58.003906 C 223.320312 36.371094 205.894531 24.300781 187.585938 24.300781 C 169.265625 24.300781 151.847656 36.371094 138.113281 58.003906 C 134.132812 64.28125 130.4375 71.386719 127.09375 79.203125 C 126.574219 80.414062 125.316406 81.136719 124.007812 80.984375 C 115.558594 79.972656 107.554688 79.609375 100.125 79.925781 C 74.523438 80.992188 55.351562 90.039062 46.1875 105.886719 C 37.035156 121.738281 38.78125 142.855469 50.660156 165.554688 C 54.101562 172.136719 58.417969 178.886719 63.519531 185.695312 C 64.308594 186.746094 64.308594 188.195312 63.519531 189.253906 C 58.417969 196.058594 54.101562 202.804688 50.660156 209.394531 C 38.78125 232.089844 37.035156 253.207031 46.1875 269.054688 C 55.351562 284.90625 74.523438 293.953125 100.125 295.023438 C 107.554688 295.335938 115.558594 294.980469 124.007812 293.964844 C 125.316406 293.804688 126.574219 294.535156 127.09375 295.746094 C 130.4375 303.5625 134.132812 310.667969 138.113281 316.945312 C 151.847656 338.570312 169.265625 350.640625 187.585938 350.640625 C 205.894531 350.640625 223.320312 338.570312 237.050781 316.945312 C 241.035156 310.667969 244.730469 303.5625 248.074219 295.746094 C 248.589844 294.535156 249.851562 293.804688 251.160156 293.964844 C 259.605469 294.980469 267.609375 295.335938 275.039062 295.023438 C 300.644531 293.953125 319.816406 284.90625 328.976562 269.054688 C 338.132812 253.207031 336.382812 232.089844 324.507812 209.394531 C 321.058594 202.804688 316.75 196.058594 311.648438 189.253906 " fill-opacity="1" fill-rule="nonzero"/><g clip-path="url(#5b04c1d963)"><path fill="#264653" d="M 334.117188 272.023438 L 334.117188 272.027344 C 324.089844 289.386719 303.328125 299.78125 275.289062 300.949219 C 268.207031 301.246094 260.628906 300.964844 252.652344 300.105469 C 249.402344 307.4375 245.859375 314.144531 242.0625 320.121094 C 227.027344 343.808594 207.640625 356.578125 187.585938 356.578125 C 167.527344 356.578125 148.140625 343.808594 133.101562 320.121094 C 129.304688 314.144531 125.761719 307.441406 122.519531 300.109375 C 114.539062 300.964844 106.957031 301.246094 99.878906 300.949219 C 71.835938 299.78125 51.078125 289.386719 41.050781 272.023438 C 31.023438 254.664062 32.394531 231.503906 45.394531 206.644531 C 48.683594 200.371094 52.71875 193.945312 57.453125 187.476562 C 52.71875 181.003906 48.683594 174.578125 45.394531 168.304688 C 32.394531 143.445312 31.023438 120.28125 41.050781 102.921875 C 51.078125 85.5625 71.835938 75.167969 99.878906 73.996094 C 106.957031 73.699219 114.539062 73.980469 122.519531 74.839844 C 125.761719 67.507812 129.304688 60.804688 133.101562 54.824219 C 148.140625 31.140625 167.527344 18.367188 187.585938 18.367188 C 207.640625 18.367188 227.027344 31.140625 242.0625 54.824219 C 245.859375 60.804688 249.402344 67.507812 252.644531 74.839844 C 260.628906 73.980469 268.207031 73.699219 275.289062 73.996094 C 303.328125 75.167969 324.089844 85.5625 334.117188 102.921875 C 344.144531 120.28125 342.773438 143.445312 329.769531 168.304688 C 326.488281 174.578125 322.445312 181.003906 317.714844 187.472656 C 322.445312 193.945312 326.488281 200.371094 329.769531 206.644531 C 342.773438 231.503906 344.144531 254.664062 334.117188 272.023438 Z M 330.109375 187.472656 C 333.382812 182.601562 336.28125 177.757812 338.761719 173.003906 C 353.339844 145.140625 354.8125 118.449219 342.902344 97.851562 C 331.003906 77.246094 307.140625 65.171875 275.714844 63.855469 C 273.761719 63.773438 271.78125 63.734375 269.757812 63.734375 C 266.226562 63.734375 262.582031 63.863281 258.84375 64.113281 C 256.273438 58.875 253.523438 53.9375 250.636719 49.386719 C 233.785156 22.839844 211.390625 8.222656 187.585938 8.222656 C 163.777344 8.222656 141.382812 22.839844 124.53125 49.386719 C 121.648438 53.925781 118.902344 58.859375 116.324219 64.113281 C 112.589844 63.863281 108.9375 63.734375 105.410156 63.734375 C 103.386719 63.734375 101.398438 63.773438 99.453125 63.855469 C 68.023438 65.171875 44.160156 77.246094 32.257812 97.851562 C 20.355469 118.453125 21.824219 145.144531 36.398438 173.007812 C 38.894531 177.773438 41.796875 182.617188 45.054688 187.476562 C 41.804688 192.320312 38.90625 197.164062 36.398438 201.9375 C 21.824219 229.800781 20.355469 256.496094 32.253906 277.097656 C 44.15625 297.703125 68.019531 309.773438 99.453125 311.089844 C 101.417969 311.167969 103.421875 311.207031 105.460938 311.207031 C 108.984375 311.207031 112.613281 311.082031 116.324219 310.835938 C 118.894531 316.082031 121.644531 321.019531 124.53125 325.5625 C 141.382812 352.105469 163.777344 366.722656 187.585938 366.722656 C 211.390625 366.722656 233.785156 352.105469 250.644531 325.554688 C 253.519531 321.011719 256.265625 316.082031 258.84375 310.832031 C 262.554688 311.082031 266.1875 311.207031 269.71875 311.207031 C 271.753906 311.207031 273.75 311.167969 275.714844 311.089844 C 307.148438 309.773438 331.007812 297.703125 342.902344 277.097656 C 354.808594 256.5 353.339844 229.808594 338.761719 201.945312 C 336.277344 197.183594 333.375 192.332031 330.109375 187.472656 " fill-opacity="1" fill-rule="nonzero"/></g><path fill="#264653" d="M 221.433594 151.175781 C 221.417969 151.1875 221.410156 151.195312 221.40625 151.207031 C 214.710938 158.433594 202.878906 168.96875 188.089844 173.363281 C 181.515625 175.3125 175.351562 175.886719 169.808594 176.972656 C 164.941406 177.933594 160.578125 179.273438 156.988281 182.863281 C 155.722656 184.128906 154.574219 185.386719 153.539062 186.628906 C 147.871094 193.480469 146.105469 202.636719 148.59375 210.988281 C 153 210.933594 164.417969 210.117188 176.375 203.695312 C 184.316406 199.433594 192.429688 192.742188 198.835938 182.234375 C 199.242188 181.523438 200.164062 181.273438 200.878906 181.6875 C 201.589844 182.101562 201.832031 183.015625 201.421875 183.730469 C 195.132812 195.199219 186.804688 202.667969 178.578125 207.574219 C 167.652344 214.097656 156.972656 216.035156 151.074219 216.625 C 155.832031 224.871094 164.660156 230.011719 174.289062 229.871094 C 174.296875 229.871094 174.300781 229.871094 174.300781 229.871094 C 181.667969 229.796875 189.71875 227.109375 197.359375 219.46875 C 215.515625 201.324219 220.289062 167.441406 221.632812 151.261719 L 221.632812 151.25 C 221.632812 151.207031 221.605469 151.164062 221.5625 151.148438 C 221.515625 151.128906 221.464844 151.140625 221.433594 151.175781 " fill-opacity="1" fill-rule="nonzero"/><path fill="#264653" d="M 230.695312 262.105469 C 228.433594 263.414062 226.164062 264.6875 223.894531 265.925781 C 227.46875 266.9375 230.996094 267.839844 234.46875 268.636719 C 235.519531 265.234375 236.5 261.730469 237.414062 258.128906 L 237.40625 258.136719 C 235.203125 259.472656 232.960938 260.800781 230.695312 262.105469 " fill-opacity="1" fill-rule="nonzero"/></svg>